<?xml version="1.0" encoding="UTF-8" standalone="no"?>
<svg xmlns="http://www.w3.org/2000/svg" version="1.2" baseProfile="tiny" viewBox="0.00 0.00 150.00 150.00">
<g stroke-width="2.00" fill="none" stroke-linecap="butt">
<path stroke="#918f8d" vector-effect="non-scaling-stroke" d="
  M 66.47 76.26
  L 69.51 126.85
  C 69.56 127.57 70.27 128.04 70.94 127.80
  Q 72.65 127.19 73.75 128.01
  C 74.39 128.49 75.32 128.16 75.50 127.38
  L 93.76 48.87
  C 93.92 48.17 93.33 47.54 92.63 47.65
  Q 90.73 47.95 89.72 47.26
  C 89.47 47.09 89.16 47.05 88.88 47.16
  L 76.57 51.92
  C 76.12 52.09 75.66 51.71 75.75 51.24
  L 81.67 20.97
  C 81.85 20.05 81.05 19.24 80.13 19.40
  Q 79.07 19.58 77.41 19.04
  C 77.10 18.94 76.76 18.94 76.46 19.06
  L 51.03 28.90
  C 50.28 29.19 49.80 29.92 49.84 30.72
  L 51.74 79.32
  C 51.76 79.88 52.26 80.30 52.82 80.25
  Q 54.57 80.08 55.72 80.60
  C 56.08 80.76 56.49 80.75 56.83 80.57
  L 65.87 75.91
  C 66.13 75.77 66.45 75.96 66.47 76.26"
/>
<path stroke="#91770e" vector-effect="non-scaling-stroke" d="
  M 71.59 124.98
  L 89.08 49.78
  C 89.19 49.34 88.75 48.95 88.32 49.12
  L 70.99 55.83
  C 70.66 55.96 70.32 55.67 70.39 55.33
  L 76.97 21.68
  C 77.07 21.14 76.54 20.70 76.03 20.90
  L 52.26 30.10
  C 51.78 30.28 51.48 30.74 51.50 31.25
  L 53.34 78.15
  C 53.35 78.42 53.64 78.60 53.89 78.47
  L 67.17 71.63
  C 67.40 71.51 67.68 71.67 67.70 71.93
  L 70.89 124.92
  C 70.90 125.10 71.04 125.24 71.21 125.25
  C 71.39 125.27 71.55 125.15 71.59 124.98"
/>
<path stroke="#91770e" vector-effect="non-scaling-stroke" d="
  M 79.9810 21.8660
  C 80.05 21.53 79.83 21.20 79.4920 21.1382
  L 79.4527 21.1305
  C 79.12 21.06 78.79 21.28 78.7249 21.6196
  L 72.6990 52.3340
  C 72.63 52.67 72.85 53.00 73.1880 53.0618
  L 73.2273 53.0695
  C 73.56 53.14 73.89 52.92 73.9551 52.5804
  L 79.9810 21.8660"
/>
<path stroke="#91770e" vector-effect="non-scaling-stroke" d="
  M 81.88 87.38
  Q 77.79 104.97 73.75 122.99
  Q 73.39 124.58 73.70 125.62
  C 73.82 126.03 74.41 126.01 74.49 125.59
  Q 75.20 122.17 83.21 87.69
  Q 91.23 53.22 92.10 49.83
  C 92.21 49.42 91.69 49.14 91.40 49.46
  Q 90.66 50.25 90.28 51.84
  Q 85.97 69.79 81.88 87.38"
/>
<path stroke="#ffe263" vector-effect="non-scaling-stroke" d="
  M 62.45 57.11
  C 62.45 57.24 62.55 57.34 62.68 57.35
  C 62.81 57.36 62.93 57.28 62.95 57.15
  L 66.31 39.94
  C 66.38 39.59 66.03 39.30 65.69 39.43
  L 62.88 40.51
  C 62.53 40.64 62.16 40.39 62.16 40.01
  L 62.16 32.28
  C 62.16 31.92 61.79 31.67 61.45 31.80
  L 57.22 33.44
  C 56.95 33.54 56.78 33.79 56.78 34.07
  L 56.78 46.18
  C 56.78 46.53 57.13 46.77 57.45 46.64
  L 61.37 45.13
  C 61.66 45.01 61.98 45.22 61.99 45.53
  L 62.45 57.11"
/>
<path stroke="#ffe263" vector-effect="non-scaling-stroke" d="
  M 76.88 83.25
  C 76.89 83.37 76.98 83.47 77.11 83.48
  C 77.23 83.49 77.34 83.41 77.36 83.29
  L 80.55 66.70
  C 80.61 66.36 80.27 66.08 79.95 66.21
  L 77.24 67.26
  C 76.91 67.39 76.55 67.14 76.55 66.78
  L 76.53 59.33
  C 76.52 58.98 76.17 58.74 75.84 58.87
  L 71.77 60.46
  C 71.52 60.56 71.35 60.80 71.35 61.07
  L 71.39 72.74
  C 71.39 73.07 71.72 73.30 72.03 73.18
  L 75.80 71.71
  C 76.08 71.60 76.39 71.80 76.40 72.10
  L 76.88 83.25"
/>
</g>
<g fill="#ffffff">
<path d="
  M 149.09 0.00
  L 149.10 148.52
  C 149.10 148.81 148.87 149.04 148.59 149.04
  L 0.00 149.11
  L 0.00 0.00
  L 149.09 0.00
  Z
  M 66.47 76.26
  L 69.51 126.85
  C 69.56 127.57 70.27 128.04 70.94 127.80
  Q 72.65 127.19 73.75 128.01
  C 74.39 128.49 75.32 128.16 75.50 127.38
  L 93.76 48.87
  C 93.92 48.17 93.33 47.54 92.63 47.65
  Q 90.73 47.95 89.72 47.26
  C 89.47 47.09 89.16 47.05 88.88 47.16
  L 76.57 51.92
  C 76.12 52.09 75.66 51.71 75.75 51.24
  L 81.67 20.97
  C 81.85 20.05 81.05 19.24 80.13 19.40
  Q 79.07 19.58 77.41 19.04
  C 77.10 18.94 76.76 18.94 76.46 19.06
  L 51.03 28.90
  C 50.28 29.19 49.80 29.92 49.84 30.72
  L 51.74 79.32
  C 51.76 79.88 52.26 80.30 52.82 80.25
  Q 54.57 80.08 55.72 80.60
  C 56.08 80.76 56.49 80.75 56.83 80.57
  L 65.87 75.91
  C 66.13 75.77 66.45 75.96 66.47 76.26
  Z"
/>
<path d="
  M 150.00 0.00
  L 150.00 0.50
  Q 149.87 0.15 149.60 0.00
  L 150.00 0.00
  Z"
/>
<path d="
  M 147.21 150.00
  L 0.00 150.00
  Q 0.00 149.96 0.00 149.92
  L 147.21 150.00
  Z"
/>
</g>
<path fill="#231f1b" d="
  M 66.47 76.26
  C 66.45 75.96 66.13 75.77 65.87 75.91
  L 56.83 80.57
  C 56.49 80.75 56.08 80.76 55.72 80.60
  Q 54.57 80.08 52.82 80.25
  C 52.26 80.30 51.76 79.88 51.74 79.32
  L 49.84 30.72
  C 49.80 29.92 50.28 29.19 51.03 28.90
  L 76.46 19.06
  C 76.76 18.94 77.10 18.94 77.41 19.04
  Q 79.07 19.58 80.13 19.40
  C 81.05 19.24 81.85 20.05 81.67 20.97
  L 75.75 51.24
  C 75.66 51.71 76.12 52.09 76.57 51.92
  L 88.88 47.16
  C 89.16 47.05 89.47 47.09 89.72 47.26
  Q 90.73 47.95 92.63 47.65
  C 93.33 47.54 93.92 48.17 93.76 48.87
  L 75.50 127.38
  C 75.32 128.16 74.39 128.49 73.75 128.01
  Q 72.65 127.19 70.94 127.80
  C 70.27 128.04 69.56 127.57 69.51 126.85
  L 66.47 76.26
  Z
  M 71.59 124.98
  L 89.08 49.78
  C 89.19 49.34 88.75 48.95 88.32 49.12
  L 70.99 55.83
  C 70.66 55.96 70.32 55.67 70.39 55.33
  L 76.97 21.68
  C 77.07 21.14 76.54 20.70 76.03 20.90
  L 52.26 30.10
  C 51.78 30.28 51.48 30.74 51.50 31.25
  L 53.34 78.15
  C 53.35 78.42 53.64 78.60 53.89 78.47
  L 67.17 71.63
  C 67.40 71.51 67.68 71.67 67.70 71.93
  L 70.89 124.92
  C 70.90 125.10 71.04 125.24 71.21 125.25
  C 71.39 125.27 71.55 125.15 71.59 124.98
  Z
  M 79.9810 21.8660
  C 80.05 21.53 79.83 21.20 79.4920 21.1382
  L 79.4527 21.1305
  C 79.12 21.06 78.79 21.28 78.7249 21.6196
  L 72.6990 52.3340
  C 72.63 52.67 72.85 53.00 73.1880 53.0618
  L 73.2273 53.0695
  C 73.56 53.14 73.89 52.92 73.9551 52.5804
  L 79.9810 21.8660
  Z
  M 81.88 87.38
  Q 77.79 104.97 73.75 122.99
  Q 73.39 124.58 73.70 125.62
  C 73.82 126.03 74.41 126.01 74.49 125.59
  Q 75.20 122.17 83.21 87.69
  Q 91.23 53.22 92.10 49.83
  C 92.21 49.42 91.69 49.14 91.40 49.46
  Q 90.66 50.25 90.28 51.84
  Q 85.97 69.79 81.88 87.38
  Z"
/>
<g fill="#ffcf01">
<path d="
  M 71.59 124.98
  C 71.55 125.15 71.39 125.27 71.21 125.25
  C 71.04 125.24 70.90 125.10 70.89 124.92
  L 67.70 71.93
  C 67.68 71.67 67.40 71.51 67.17 71.63
  L 53.89 78.47
  C 53.64 78.60 53.35 78.42 53.34 78.15
  L 51.50 31.25
  C 51.48 30.74 51.78 30.28 52.26 30.10
  L 76.03 20.90
  C 76.54 20.70 77.07 21.14 76.97 21.68
  L 70.39 55.33
  C 70.32 55.67 70.66 55.96 70.99 55.83
  L 88.32 49.12
  C 88.75 48.95 89.19 49.34 89.08 49.78
  L 71.59 124.98
  Z
  M 62.45 57.11
  C 62.45 57.24 62.55 57.34 62.68 57.35
  C 62.81 57.36 62.93 57.28 62.95 57.15
  L 66.31 39.94
  C 66.38 39.59 66.03 39.30 65.69 39.43
  L 62.88 40.51
  C 62.53 40.64 62.16 40.39 62.16 40.01
  L 62.16 32.28
  C 62.16 31.92 61.79 31.67 61.45 31.80
  L 57.22 33.44
  C 56.95 33.54 56.78 33.79 56.78 34.07
  L 56.78 46.18
  C 56.78 46.53 57.13 46.77 57.45 46.64
  L 61.37 45.13
  C 61.66 45.01 61.98 45.22 61.99 45.53
  L 62.45 57.11
  Z
  M 76.88 83.25
  C 76.89 83.37 76.98 83.47 77.11 83.48
  C 77.23 83.49 77.34 83.41 77.36 83.29
  L 80.55 66.70
  C 80.61 66.36 80.27 66.08 79.95 66.21
  L 77.24 67.26
  C 76.91 67.39 76.55 67.14 76.55 66.78
  L 76.53 59.33
  C 76.52 58.98 76.17 58.74 75.84 58.87
  L 71.77 60.46
  C 71.52 60.56 71.35 60.80 71.35 61.07
  L 71.39 72.74
  C 71.39 73.07 71.72 73.30 72.03 73.18
  L 75.80 71.71
  C 76.08 71.60 76.39 71.80 76.40 72.10
  L 76.88 83.25
  Z"
/>
<rect x="-0.64" y="-16.27" transform="translate(76.34,37.10) rotate(11.1)" width="1.28" height="32.54" rx="0.62"/>
<path d="
  M 83.21 87.69
  Q 75.20 122.17 74.49 125.59
  C 74.41 126.01 73.82 126.03 73.70 125.62
  Q 73.39 124.58 73.75 122.99
  Q 77.79 104.97 81.88 87.38
  Q 85.97 69.79 90.28 51.84
  Q 90.66 50.25 91.40 49.46
  C 91.69 49.14 92.21 49.42 92.10 49.83
  Q 91.23 53.22 83.21 87.69
  Z"
/>
</g>
<g fill="#fff4c5">
<path d="
  M 62.45 57.11
  L 61.99 45.53
  C 61.98 45.22 61.66 45.01 61.37 45.13
  L 57.45 46.64
  C 57.13 46.77 56.78 46.53 56.78 46.18
  L 56.78 34.07
  C 56.78 33.79 56.95 33.54 57.22 33.44
  L 61.45 31.80
  C 61.79 31.67 62.16 31.92 62.16 32.28
  L 62.16 40.01
  C 62.16 40.39 62.53 40.64 62.88 40.51
  L 65.69 39.43
  C 66.03 39.30 66.38 39.59 66.31 39.94
  L 62.95 57.15
  C 62.93 57.28 62.81 57.36 62.68 57.35
  C 62.55 57.34 62.45 57.24 62.45 57.11
  Z"
/>
<path d="
  M 76.88 83.25
  L 76.40 72.10
  C 76.39 71.80 76.08 71.60 75.80 71.71
  L 72.03 73.18
  C 71.72 73.30 71.39 73.07 71.39 72.74
  L 71.35 61.07
  C 71.35 60.80 71.52 60.56 71.77 60.46
  L 75.84 58.87
  C 76.17 58.74 76.52 58.98 76.53 59.33
  L 76.55 66.78
  C 76.55 67.14 76.91 67.39 77.24 67.26
  L 79.95 66.21
  C 80.27 66.08 80.61 66.36 80.55 66.70
  L 77.36 83.29
  C 77.34 83.41 77.23 83.49 77.11 83.48
  C 76.98 83.47 76.89 83.37 76.88 83.25
  Z"
/>
</g>
</svg>
